<svg xmlns="http://www.w3.org/2000/svg" xmlns:xlink="http://www.w3.org/1999/xlink" width="32px"
     height="32px">
    <path fill-rule="evenodd" fill="rgb(0, 0, 0)"
          d="M16.000,32.000 C7.163,32.000 -0.000,24.837 -0.000,16.000 C-0.000,7.163 7.163,-0.000 16.000,-0.000 C24.837,-0.000 32.000,7.163 32.000,16.000 C32.000,24.837 24.837,32.000 16.000,32.000 ZM16.000,2.500 C8.544,2.500 2.500,8.544 2.500,16.000 C2.500,23.456 8.544,29.500 16.000,29.500 C23.456,29.500 29.500,23.456 29.500,16.000 C29.500,8.544 23.456,2.500 16.000,2.500 ZM19.797,13.550 L19.367,16.375 L17.014,16.375 C17.014,19.960 17.014,24.000 17.014,24.000 L14.243,24.000 C14.243,24.000 14.243,20.001 14.243,16.375 L12.203,16.375 L12.203,13.550 L14.243,13.550 L14.243,11.354 C14.243,10.044 14.885,8.000 17.696,8.000 L19.757,8.010 L19.757,10.752 C19.757,10.752 18.258,10.752 17.959,10.752 C17.658,10.752 17.014,10.896 17.014,11.519 L17.014,13.550 L19.797,13.550 Z"></path>
</svg>