<svg xmlns="http://www.w3.org/2000/svg" xmlns:xlink="http://www.w3.org/1999/xlink" width="32px"
     height="32px">
    <path fill-rule="evenodd" fill="rgb(0, 0, 0)"
          d="M16.000,32.000 C7.163,32.000 0.000,24.837 0.000,16.000 C0.000,7.163 7.163,-0.000 16.000,-0.000 C24.837,-0.000 32.000,7.163 32.000,16.000 C32.000,24.837 24.837,32.000 16.000,32.000 ZM16.000,2.500 C8.544,2.500 2.500,8.544 2.500,16.000 C2.500,23.456 8.544,29.500 16.000,29.500 C23.456,29.500 29.500,23.456 29.500,16.000 C29.500,8.544 23.456,2.500 16.000,2.500 ZM22.047,12.997 L21.029,12.997 L21.029,11.025 L19.037,11.025 L19.037,10.002 L21.029,10.002 L21.029,8.033 L22.047,8.033 L22.047,10.002 L24.006,10.002 L24.006,11.025 L22.047,11.025 L22.047,12.997 ZM15.810,8.652 C15.810,8.652 17.227,9.528 17.227,11.240 C17.227,12.953 16.398,13.700 15.354,14.622 C14.309,15.543 14.918,16.092 16.551,17.255 C18.184,18.417 18.641,20.989 16.529,22.854 C14.418,24.720 7.994,24.469 7.994,21.009 C7.994,17.548 12.828,17.495 13.221,17.495 C13.611,17.495 13.678,17.386 13.352,17.034 C13.023,16.685 12.500,16.004 13.111,15.258 C12.021,15.302 9.018,14.709 9.018,11.943 C9.018,9.177 11.914,7.993 12.957,7.993 C14.004,7.993 17.160,7.993 18.162,7.993 C18.162,7.993 17.924,8.191 17.379,8.497 C16.834,8.804 15.810,8.652 15.810,8.652 ZM9.844,20.372 C9.844,21.974 10.998,23.050 13.152,23.050 C15.305,23.050 16.572,22.326 16.572,20.833 C16.572,19.339 15.148,18.593 14.352,17.978 C11.412,17.978 9.844,18.769 9.844,20.372 ZM12.740,8.520 C9.691,8.520 10.867,14.577 13.459,14.577 C16.898,14.577 15.113,8.431 12.740,8.520 Z"></path>
</svg>