<svg xmlns="http://www.w3.org/2000/svg" xmlns:xlink="http://www.w3.org/1999/xlink" width="32px"
     height="32px">
    <path fill-rule="evenodd" fill="rgb(0, 0, 0)"
          d="M16.000,32.000 C7.163,32.000 -0.000,24.837 -0.000,16.000 C-0.000,7.163 7.163,-0.000 16.000,-0.000 C24.837,-0.000 32.000,7.163 32.000,16.000 C32.000,24.837 24.837,32.000 16.000,32.000 ZM16.000,2.500 C8.544,2.500 2.500,8.544 2.500,16.000 C2.500,23.456 8.544,29.500 16.000,29.500 C23.456,29.500 29.500,23.456 29.500,16.000 C29.500,8.544 23.456,2.500 16.000,2.500 ZM22.399,12.501 C22.399,12.520 22.401,12.536 22.401,12.555 C22.401,12.568 22.399,12.584 22.399,12.600 C22.399,12.605 22.401,12.612 22.401,12.618 C22.624,18.352 18.488,23.000 13.163,23.000 C11.289,23.000 9.519,22.424 8.000,21.427 C10.235,21.809 12.042,20.612 12.571,19.953 C11.086,19.953 9.727,18.586 9.621,17.539 C9.921,17.589 10.606,17.653 10.995,17.427 C8.979,16.833 8.426,15.192 8.449,13.954 C8.786,14.307 9.503,14.387 9.891,14.355 C8.755,13.599 7.890,11.525 8.890,9.659 C10.519,11.944 13.409,13.278 15.882,13.347 L15.883,13.347 C15.828,13.092 15.798,12.827 15.798,12.555 C15.798,10.591 17.276,9.000 19.099,9.000 C20.038,9.000 20.884,9.422 21.485,10.099 C21.484,10.098 21.484,10.097 21.484,10.097 C22.012,10.097 23.079,9.631 23.544,9.311 C23.367,10.042 22.651,10.961 22.168,11.242 C22.922,11.162 23.730,10.843 24.000,10.683 C23.534,11.514 22.884,12.145 22.399,12.501 Z"></path>
</svg>