<svg width="16px" height="15px" viewBox="0 0 16 15" version="1.1" xmlns="http://www.w3.org/2000/svg"
     xmlns:xlink="http://www.w3.org/1999/xlink">
  <g id="Design" stroke="none" stroke-width="1" fill-rule="evenodd" fill="#FF2863">
    <path
      d="M8,0.005859375 C9.03125516,0.005859375 10.0039017,0.202146475 10.9179688,0.594726562 C11.8320358,0.98730665 12.6289029,1.52050444 13.3085938,2.19433594 C13.9882846,2.86816743 14.5244121,3.6621048 14.9169922,4.57617188 C15.3095723,5.49023895 15.5058594,6.46288547 15.5058594,7.49414062 C15.5058594,8.53711459 15.3095723,9.51269077 14.9169922,10.4208984 C14.5244121,11.3291061 13.9882846,12.1230435 13.3085938,12.8027344 C12.6289029,13.4824253 11.8320358,14.0185527 10.9179688,14.4111328 C10.0039017,14.8037129 9.03125516,15 8,15 C6.96874484,15 5.99609832,14.8037129 5.08203125,14.4111328 C4.16796418,14.0185527 3.37109715,13.4824253 2.69140625,12.8027344 C2.01171535,12.1230435 1.4755879,11.3291061 1.08300781,10.4208984 C0.690427725,9.51269077 0.494140625,8.53711459 0.494140625,7.49414062 C0.494140625,6.46288547 0.690427725,5.49023895 1.08300781,4.57617188 C1.4755879,3.6621048 2.01171535,2.86816743 2.69140625,2.19433594 C3.37109715,1.52050444 4.16796418,0.98730665 5.08203125,0.594726562 C5.99609832,0.202146475 6.96874484,0.005859375 8,0.005859375 Z M8.75585938,11.2558594 L8.75585938,9.74414062 L7.24414062,9.74414062 L7.24414062,11.2558594 L8.75585938,11.2558594 Z M8.75585938,8.25 L8.75585938,3.75 L7.24414062,3.75 L7.24414062,8.25 L8.75585938,8.25 Z"></path>
  </g>
</svg>
