<?xml version="1.0" encoding="UTF-8"?>
<svg viewBox="0 0 18 18" version="1.1" xmlns="http://www.w3.org/2000/svg"
     xmlns:xlink="http://www.w3.org/1999/xlink">
    <g id="Design" stroke="none" stroke-width="1" fill="#ccc" fill-rule="evenodd">
        <path d="M12.4921875,12.0078125 L17.484375,17 L16.0078125,18.5 L10.9921875,13.5078125 L10.9921875,12.7109375 L10.734375,12.4296875 C10.1562471,12.9140649 9.50781609,13.2968736 8.7890625,13.578125 C8.07030891,13.8593764 7.30469156,14 6.4921875,14 C5.60155805,14 4.7617227,13.8281267 3.97265625,13.484375 C3.1835898,13.1406233 2.49609668,12.6757842 1.91015625,12.0898438 C1.32421582,11.5039033 0.859376719,10.8164102 0.515625,10.0273438 C0.171873281,9.2382773 0,8.39844195 0,7.5078125 C0,6.60155797 0.171873281,5.7539102 0.515625,4.96484375 C0.859376719,4.1757773 1.32421582,3.48828418 1.91015625,2.90234375 C2.49609668,2.31640332 3.1835898,1.85156422 3.97265625,1.5078125 C4.7617227,1.16406078 5.60155805,0.9921875 6.4921875,0.9921875 C7.39844203,0.9921875 8.2460898,1.16406078 9.03515625,1.5078125 C9.8242227,1.85156422 10.5117158,2.31640332 11.0976562,2.90234375 C11.6835967,3.48828418 12.1484358,4.1757773 12.4921875,4.96484375 C12.8359392,5.7539102 13.0078125,6.60155797 13.0078125,7.5078125 C13.0078125,8.30469148 12.8671889,9.06640262 12.5859375,9.79296875 C12.3046861,10.5195349 11.9218774,11.1640597 11.4375,11.7265625 L11.6953125,12.0078125 L12.4921875,12.0078125 Z M6.4921875,12.0078125 C7.74219375,12.0078125 8.80468313,11.5664107 9.6796875,10.6835938 C10.5546919,9.80077684 10.9921875,8.74219367 10.9921875,7.5078125 C10.9921875,6.25780625 10.5546919,5.19531687 9.6796875,4.3203125 C8.80468313,3.44530813 7.74219375,3.0078125 6.4921875,3.0078125 C5.25780633,3.0078125 4.19922316,3.44530813 3.31640625,4.3203125 C2.43358934,5.19531687 1.9921875,6.25780625 1.9921875,7.5078125 C1.9921875,8.74219367 2.43358934,9.80077684 3.31640625,10.6835938 C4.19922316,11.5664107 5.25780633,12.0078125 6.4921875,12.0078125 Z"></path>
    </g>
</svg>
