<?xml version="1.0" encoding="UTF-8" standalone="no"?>
<!DOCTYPE svg  PUBLIC '-//W3C//DTD SVG 1.1//EN'  'http://www.w3.org/Graphics/SVG/1.1/DTD/svg11.dtd'>
<svg xmlns="http://www.w3.org/2000/svg" version="1.1">
<defs>
<font id="FuturaBT-ExtraBlack" horiz-adv-x="685">
<font-face ascent="800" bbox="-56 -237 1015 963" cap-height="715" panose-1="0 0 0 0 0 0 0 0 0 0" font-weight="900" x-height="505" underline-position="-324" underline-thickness="185" descent="-200" unicode-range="U+0020-00FE" units-per-em="1000" font-family="Futura Extra Black"/>
<missing-glyph/>
<glyph horiz-adv-x="343" unicode=" " glyph-name="space"/>
<glyph horiz-adv-x="375" unicode="!" d="M49 98q0 48 40 82.5t98 34.5t98.5 -35t40.5 -82t-40 -82t-99 -35t-98.5 34.5t-39.5 82.5zM66 270v471h242v-471h-242z" glyph-name="exclam"/>
<glyph horiz-adv-x="370" unicode='&quot;' d="M159 703v-275h-126v275h126zM337 703v-275h-127v275h127z" glyph-name="quotedbl"/>
<glyph horiz-adv-x="769" unicode="#" d="M458 718l-63 -179h111l63 179h141l-63 -179h125l-49 -132h-123l-37 -104h126l-49 -132h-124l-64 -179h-141l64 179h-111l-64 -179h-141l64 179h-126l49 132h124l36 104h-126l48 132h126l63 179h141zM462 407h-117l-38 -104h117z" glyph-name="numbersign"/>
<glyph unicode="$" d="M23 82l79 188q110 -88 226 -88q35 0 54.5 12t19.5 33q0 19 -21 28t-77 20l-72 15q-83 17 -131 71.5t-48 133.5q0 87 62.5 148.5t169.5 73.5v74h116v-72q115 -3 210 -58l-77 -179q-99 61 -168 61q-36 0 -56 -13t-20 -33q0 -28 94 -45q5 -1 8 -2l67 -13q88 -16 135.5 -65 t47.5 -120q0 -107 -63 -171.5t-185 -81.5v-80h-116v80q-140 3 -255 83z" glyph-name="dollar"/>
<glyph horiz-adv-x="904" unicode="%" d="M199 -19l413 741h103l-415 -741h-101zM888 179q0 -90 -49.5 -144t-133.5 -54t-134 54t-50 144t50 143.5t134 53.5t133.5 -53.5t49.5 -143.5zM705 82q39 0 39 97q0 49 -8.5 72.5t-30.5 23.5q-40 0 -40 -96q0 -97 40 -97zM392 525q0 -90 -50 -143.5t-134 -53.5t-134 53.5 t-50 143.5t50 143.5t134 53.5t134 -53.5t50 -143.5zM209 429q22 0 30.5 23.5t8.5 72.5q0 97 -39 97q-40 0 -40 -97q0 -96 40 -96z" glyph-name="percent"/>
<glyph horiz-adv-x="836" unicode="&amp;" d="M528 60q-105 -72 -235 -72q-120 0 -194 62t-74 156q0 74 45 125.5t124 64.5q-36 32 -54.5 63t-18.5 74q0 87 71.5 142.5t190.5 55.5q114 0 183.5 -56.5t69.5 -141.5q0 -127 -129 -164l68 -63q60 47 105 108l141 -145q-48 -55 -115 -91l175 -178h-298zM388 480 q42 24 42 58q0 18 -11 29.5t-28 11.5t-29 -13t-12 -32q0 -31 38 -54zM393 194l-84 87q-39 -25 -39 -52q0 -22 17.5 -37t45.5 -15q32 0 60 17z" glyph-name="ampersand"/>
<glyph horiz-adv-x="192" unicode="&apos;" d="M159 703v-275h-126v275h126z" glyph-name="quotesingle"/>
<glyph horiz-adv-x="435" unicode="(" d="M213 -220q-76 125 -112.5 242t-36.5 247q0 247 166 516l182 -100q-123 -206 -123 -420q0 -172 115 -393z" glyph-name="parenleft"/>
<glyph horiz-adv-x="435" unicode=")" d="M222 -220l-191 92q115 221 115 393q0 214 -123 420l182 100q166 -269 166 -516q0 -130 -36.5 -247t-112.5 -242z" glyph-name="parenright"/>
<glyph horiz-adv-x="521" unicode="*" d="M298 593l95 76l57 -96l-115 -45l115 -44l-57 -97l-95 78l19 -124h-114l19 124l-96 -78l-55 97l116 44l-116 45l55 96l96 -76l-19 122h114z" glyph-name="asterisk"/>
<glyph horiz-adv-x="833" unicode="+" d="M485 596v-231h224v-133h-224v-232h-137v232h-224v133h224v231h137z" glyph-name="plus"/>
<glyph horiz-adv-x="343" unicode="," d="M-9 -171l116 354h244l-168 -354h-192z" glyph-name="comma"/>
<glyph horiz-adv-x="480" unicode="-" d="M73 149v204h334v-204h-334z" glyph-name="hyphen"/>
<glyph horiz-adv-x="343" unicode="." d="M32 102q0 48 40 82.5t99 34.5q58 0 98.5 -35t40.5 -82t-40 -82t-99 -35t-99 34.5t-40 82.5z" glyph-name="period"/>
<glyph horiz-adv-x="468" unicode="/" d="M0 -93l350 824h118l-350 -824h-118z" glyph-name="slash"/>
<glyph unicode="0" d="M35 352q0 172 82.5 271t225.5 99t225 -97.5t82 -272.5q0 -174 -82 -272.5t-225 -98.5t-225.5 99.5t-82.5 271.5zM285 352q0 -149 58 -149q57 0 57 149t-57 149q-31 0 -44.5 -36t-13.5 -113z" glyph-name="zero"/>
<glyph unicode="1" d="M244 491h-107v217h364v-708h-257v491z" glyph-name="one"/>
<glyph unicode="2" d="M16 0l319 380q41 49 41 80q0 21 -11.5 33t-32.5 12q-47 0 -47 -83h-238v10q0 137 77.5 213.5t213.5 76.5q132 0 210.5 -72.5t78.5 -187.5q0 -65 -29.5 -114.5t-91.5 -100.5l-60 -50h180v-197h-610z" glyph-name="two"/>
<glyph unicode="3" d="M309 443q3 0 7 -0.5t6 -0.5q64 0 64 50q0 19 -11 30.5t-29 11.5q-38 0 -38 -50h-236q2 117 73.5 177.5t206.5 60.5q122 0 195 -56t73 -144q0 -107 -102 -144q129 -29 129 -167q0 -103 -79 -166.5t-217 -63.5q-145 0 -227.5 71.5t-82.5 196.5v4h246q2 -73 54 -73 q25 0 40.5 16t15.5 42q0 61 -70 61q-12 0 -18 -1v145z" glyph-name="three"/>
<glyph unicode="4" d="M256 329h102v97q0 52 5 80q-12 -30 -49 -89zM339 0v142h-306v187l269 386h282v-386h77v-187h-77v-142h-245z" glyph-name="four"/>
<glyph unicode="5" d="M74 282l68 426h443v-191h-282l-7 -43q48 6 95 6q117 0 184 -63t67 -171q0 -124 -86 -195t-244 -71q-149 0 -276 65l32 199q153 -62 234 -62q99 0 99 55q0 32 -34.5 50.5t-101.5 18.5q-55 0 -191 -24z" glyph-name="five"/>
<glyph unicode="6" d="M405 504q9 1 27 1q106 0 165 -59.5t59 -163.5q0 -132 -86 -216.5t-223 -84.5q-136 0 -222.5 82t-86.5 207q0 86 41 160t132 183l84 100h335zM346 199q27 0 43.5 19t16.5 50t-16.5 50t-43.5 19t-43.5 -19t-16.5 -50t16.5 -50t43.5 -19z" glyph-name="six"/>
<glyph unicode="7" d="M61 0l254 489h-248v219h641l-358 -708h-289z" glyph-name="seven"/>
<glyph unicode="8" d="M180 372q-57 16 -87 54.5t-30 92.5q0 86 77 144.5t203 58.5t202.5 -58.5t76.5 -144.5q0 -54 -30 -92.5t-86 -54.5q68 -22 104 -65.5t36 -103.5q0 -98 -81.5 -159.5t-221.5 -61.5t-222 61.5t-82 159.5q0 59 36.5 103t104.5 66zM342 439q18 0 29.5 13.5t11.5 36.5 t-11.5 36.5t-29.5 13.5t-29 -13.5t-11 -36.5q0 -22 11.5 -36t28.5 -14zM343 158q24 0 39 18.5t15 48.5t-15 48t-39 18t-39.5 -18t-15.5 -48t15.5 -48.5t39.5 -18.5z" glyph-name="eight"/>
<glyph unicode="9" d="M286 203q-9 -1 -27 -1q-105 0 -165.5 61t-60.5 163q0 127 87 211.5t224 84.5q136 0 222.5 -81t86.5 -205q0 -85 -41 -158t-132 -183l-84 -100h-335zM345 506q-26 0 -43 -19t-17 -50t17 -49.5t43 -18.5q27 0 43.5 18.5t16.5 49.5t-16.5 50t-43.5 19z" glyph-name="nine"/>
<glyph horiz-adv-x="375" unicode=":" d="M49 102q0 48 40 82.5t98 34.5t98.5 -35t40.5 -82t-40 -82t-99 -35t-98.5 34.5t-39.5 82.5zM49 388q0 48 39.5 82t98.5 34q58 0 98.5 -34.5t40.5 -81.5t-40 -82t-99 -35t-98.5 34.5t-39.5 82.5z" glyph-name="colon"/>
<glyph horiz-adv-x="375" unicode=";" d="M0 -171l116 354h244l-168 -354h-192zM97 388q0 48 40 82.5t98 34.5t98.5 -35t40.5 -82t-40 -82t-99 -35t-98.5 34.5t-39.5 82.5z" glyph-name="semicolon"/>
<glyph horiz-adv-x="833" unicode="&lt;" d="M704 458l-391 -160l391 -160v-146l-575 238v137l575 238v-147z" glyph-name="less"/>
<glyph horiz-adv-x="833" unicode="=" d="M709 480v-133h-585v133h585zM709 250v-133h-585v133h585z" glyph-name="equal"/>
<glyph horiz-adv-x="833" unicode="&gt;" d="M704 367v-137l-575 -238v146l391 160l-391 160v147z" glyph-name="greater"/>
<glyph horiz-adv-x="609" unicode="?" d="M213 251v185q30 -9 54 -9q36 0 56.5 18.5t20.5 50.5q0 50 -43 50q-42 0 -45 -59h-246q7 115 85.5 184.5t204.5 69.5q127 0 206 -73.5t79 -187.5q0 -105 -78 -170.5t-204 -65.5q-42 0 -90 7zM152 95q0 46 40 79.5t99 33.5t99 -33.5t40 -79.5t-40 -80t-99 -34t-99 33.5 t-40 80.5z" glyph-name="question"/>
<glyph horiz-adv-x="1000" unicode="@" d="M550 241l23 95q-8 70 -65 70q-47 0 -82 -57t-35 -134q0 -36 15 -55t42 -19q35 0 63 26.5t39 73.5zM606 445l24 40h118l-76 -306q-2 -10 -2 -15q0 -24 23 -24q61 0 112 68.5t51 162.5q0 114 -84.5 185.5t-226.5 71.5q-140 0 -240 -69q-75 -53 -116 -131.5t-41 -170.5 q0 -144 97 -229t262 -85q157 0 286 91l56 -78q-157 -117 -353 -117q-189 0 -317 103q-145 116 -145 312q0 174 107 301q73 86 176.5 132.5t225.5 46.5q189 0 306 -101t117 -260q0 -173 -129 -272q-70 -55 -160 -55q-105 0 -114 75q-55 -74 -141 -74q-168 0 -168 171 q0 121 70.5 201t173.5 80q74 0 108 -54z" glyph-name="at"/>
<glyph horiz-adv-x="736" unicode="A" d="M-28 0l255 715h286l250 -715h-276l-23 90h-194l-22 -90h-276zM313 260h107l-22 81q-26 97 -29 157h-5q-3 -60 -29 -157z" glyph-name="A"/>
<glyph horiz-adv-x="700" unicode="B" d="M67 0v715h342q111 0 172 -52.5t61 -142.5q0 -58 -29 -97t-82 -51q144 -30 144 -170q0 -99 -67.5 -150.5t-199.5 -51.5h-341zM308 545v-100h34q64 0 64 50t-64 50h-34zM308 291v-114h43q80 0 80 57t-80 57h-43z" glyph-name="B"/>
<glyph horiz-adv-x="639" unicode="C" d="M593 431q-70 67 -149 67q-63 0 -101.5 -38.5t-38.5 -103.5q0 -62 36.5 -100t98.5 -38q69 0 159 66l-8 -269q-84 -34 -168 -34q-132 0 -232 74q-148 109 -148 301q0 163 108.5 269.5t274.5 106.5q85 0 168 -36v-265z" glyph-name="C"/>
<glyph horiz-adv-x="791" unicode="D" d="M67 0v715h208q193 0 283 -45q92 -46 142 -128.5t50 -184.5q0 -89 -38.5 -163t-109.5 -123q-64 -44 -142.5 -57.5t-203.5 -13.5h-189zM322 218q86 2 126.5 34.5t40.5 104.5q0 138 -156 138h-11v-277z" glyph-name="D"/>
<glyph horiz-adv-x="588" unicode="E" d="M67 0v715h478v-194h-226v-69h205v-183h-205v-75h232v-194h-484z" glyph-name="E"/>
<glyph horiz-adv-x="566" unicode="F" d="M67 0v715h478v-194h-221v-83h200v-183h-200v-255h-257z" glyph-name="F"/>
<glyph horiz-adv-x="834" unicode="G" d="M522 256h-112v168h395q2 -18 2 -53q0 -146 -74 -244q-53 -69 -133.5 -107.5t-175.5 -38.5q-165 0 -274 107q-108 105 -108 268q0 162 108 268q109 107 274 107q224 0 335 -189l-229 -85q-38 59 -102 59q-56 0 -90.5 -43t-34.5 -117q0 -75 34.5 -117t96.5 -42q78 0 88 59z " glyph-name="G"/>
<glyph horiz-adv-x="806" unicode="H" d="M67 0v715h257v-238h157v238h257v-715h-257v252h-157v-252h-257z" glyph-name="H"/>
<glyph horiz-adv-x="405" unicode="I" d="M72 0v715h261v-715h-261z" glyph-name="I"/>
<glyph horiz-adv-x="509" unicode="J" d="M196 320v395h257v-465q0 -54 -6.5 -89.5t-27.5 -69.5q-32 -52 -87.5 -81t-123.5 -29q-121 0 -218 78l84 192q43 -46 74 -46t39.5 24.5t8.5 90.5z" glyph-name="J"/>
<glyph horiz-adv-x="764" unicode="K" d="M67 0v715h252v-305l163 305h291l-216 -352l246 -363h-311l-173 299v-299h-252z" glyph-name="K"/>
<glyph horiz-adv-x="586" unicode="L" d="M67 0v715h257v-483h250v-232h-507z" glyph-name="L"/>
<glyph horiz-adv-x="976" unicode="M" d="M720 0l-31 283q-2 16 -5.5 62t-5.5 69q-10 -63 -32 -139l-82 -275h-153l-82 275q-22 76 -32 139q-10 -118 -11 -131l-31 -283h-252l122 715h265l51 -177q38 -129 47 -209h4q11 83 49 212l53 174h265l113 -715h-252z" glyph-name="M"/>
<glyph horiz-adv-x="845" unicode="N" d="M67 0v715h252l222 -374q-8 51 -8 114v260h248v-715h-254l-220 371q8 -53 8 -113v-258h-248z" glyph-name="N"/>
<glyph horiz-adv-x="847" unicode="O" d="M806 356q0 -160 -109 -267q-110 -108 -273 -108q-162 0 -274 109q-108 106 -108 266q0 161 108 267q111 108 274 108t274 -108q108 -106 108 -267zM424 221q53 0 86.5 37t33.5 98q0 62 -33.5 99t-86.5 37t-87 -37.5t-34 -98.5t34 -98t87 -37z" glyph-name="O"/>
<glyph horiz-adv-x="708" unicode="P" d="M325 516v-119h40q76 0 76 59q0 28 -19.5 44t-56.5 16h-40zM67 0v715h307q160 0 236 -61.5t76 -199.5q0 -128 -68.5 -185.5t-212.5 -57.5h-81v-211h-257z" glyph-name="P"/>
<glyph horiz-adv-x="847" unicode="Q" d="M379 290l162 32q3 28 3 35q0 62 -33.5 99t-86.5 37t-87 -37.5t-34 -98.5q0 -62 33 -98t87 -36q2 0 6.5 0.5t7.5 0.5zM651 -60l-52 82q-87 -39 -175 -39q-165 0 -274 107q-108 106 -108 267q0 162 108 268t274 106q165 0 274 -107q108 -105 108 -267q0 -116 -60 -207 l108 -120z" glyph-name="Q"/>
<glyph horiz-adv-x="716" unicode="R" d="M67 0v715h323q142 0 215.5 -62.5t73.5 -178.5q0 -76 -37.5 -125.5t-100.5 -57.5l191 -291h-288l-125 236v-236h-252zM319 531v-140h40q37 0 56.5 18t19.5 51q0 34 -19.5 52.5t-56.5 18.5h-40z" glyph-name="R"/>
<glyph horiz-adv-x="611" unicode="S" d="M2 61l82 200q109 -74 179 -74q57 0 57 37q0 30 -78 46q-11 3 -17 4q-184 39 -184 197q0 114 82 187t217 73q120 0 241 -65l-78 -187q-76 56 -147 56q-56 0 -56 -34q0 -6 1.5 -10.5t5.5 -8.5t8 -7.5t12.5 -6.5t15 -5t18.5 -5t20.5 -5t24.5 -5.5t27 -5.5q72 -16 115.5 -67 t43.5 -125q0 -117 -85.5 -193t-223.5 -76q-142 0 -281 80z" glyph-name="S"/>
<glyph horiz-adv-x="575" unicode="T" d="M159 0v481h-143v234h543v-234h-143v-481h-257z" glyph-name="T"/>
<glyph horiz-adv-x="782" unicode="U" d="M59 327v388h257v-390q0 -62 14.5 -90.5t56.5 -28.5t57 29t15 90v390h257v-388q0 -141 -42 -208q-41 -65 -116 -101.5t-171 -36.5t-171 36.5t-116 101.5t-41 208z" glyph-name="U"/>
<glyph horiz-adv-x="714" unicode="V" d="M238 0l-273 715h278l76 -259q29 -99 35 -169h5q10 74 37 163l80 265h273l-272 -715h-239z" glyph-name="V"/>
<glyph horiz-adv-x="977" unicode="W" d="M484 362q-2 -37 -20 -118l-54 -244h-224l-209 715h258l56 -315q14 -89 16 -141h6q1 41 17 122l68 334h181l68 -334q16 -81 17 -122h6q2 52 16 141l56 315h258l-209 -715h-224l-54 244q-18 81 -20 118h-9z" glyph-name="W"/>
<glyph horiz-adv-x="716" unicode="X" d="M381 162q-14 25 -23 60q-8 -31 -24 -60l-81 -162h-294l254 381l-224 334h293l53 -117q20 -48 23 -59q5 18 22 59l54 117h292l-223 -334l254 -381h-294z" glyph-name="X"/>
<glyph horiz-adv-x="637" unicode="Y" d="M183 0v316l-239 399h293l60 -139q8 -18 21 -59q11 33 22 59l59 139h291l-248 -399v-316h-259z" glyph-name="Y"/>
<glyph horiz-adv-x="674" unicode="Z" d="M-26 0l320 502h-250v213h659l-311 -495h276v-220h-694z" glyph-name="Z"/>
<glyph horiz-adv-x="435" unicode="[" d="M88 -205v962h324v-167h-125v-628h125v-167h-324z" glyph-name="bracketleft"/>
<glyph horiz-adv-x="468" unicode="\" d="M350 -93l-350 824h118l350 -824h-118z" glyph-name="backslash"/>
<glyph horiz-adv-x="435" unicode="]" d="M347 -205h-323v167h124v628h-124v167h323v-962z" glyph-name="bracketright"/>
<glyph horiz-adv-x="1000" unicode="^" d="M582 714l216 -276h-148l-150 151l-151 -151h-148l216 276h165z" glyph-name="asciicircum"/>
<glyph horiz-adv-x="500" unicode="_" d="M500 -98v-138h-500v138h500z" glyph-name="underscore"/>
<glyph horiz-adv-x="500" unicode="`" d="M105 743h145l88 -171h-81z" glyph-name="grave"/>
<glyph horiz-adv-x="678" unicode="a" d="M402 0v76q-71 -95 -165 -95q-86 0 -145 73.5t-59 193.5q0 125 57 199t147 74q92 0 156 -83v67h235v-505h-226zM268 254q0 -33 17.5 -52.5t45.5 -19.5q29 0 46 19.5t17 52.5t-17.5 53t-45.5 20t-45.5 -20t-17.5 -53z" glyph-name="a"/>
<glyph horiz-adv-x="678" unicode="b" d="M51 757h240v-235q0 -54 -5 -89q60 87 155 87q86 0 145 -73.5t59 -192.5q0 -125 -57 -199t-147 -74q-99 0 -163 93v-74h-227v757zM410 251q0 33 -17.5 53t-45.5 20t-45.5 -20t-17.5 -53q0 -34 17.5 -54.5t45.5 -20.5t45.5 20.5t17.5 54.5z" glyph-name="b"/>
<glyph horiz-adv-x="464" unicode="c" d="M435 289q-40 34 -83 34q-36 0 -58.5 -19.5t-22.5 -52.5q0 -31 21.5 -51t55.5 -20q41 0 87 38v-201q-75 -36 -143 -36q-116 0 -192.5 76.5t-76.5 191.5q0 116 76.5 194t192.5 78q65 0 143 -28v-204z" glyph-name="c"/>
<glyph horiz-adv-x="678" unicode="d" d="M628 757v-757h-228v74q-64 -93 -163 -93q-90 0 -147 74t-57 199q0 119 59 192.5t145 73.5q95 0 155 -87q-5 35 -5 89v235h241zM331 324q-28 0 -45.5 -20t-17.5 -53q0 -34 17.5 -54.5t45.5 -20.5t45.5 20.5t17.5 54.5q0 33 -17.5 53t-45.5 20z" glyph-name="d"/>
<glyph horiz-adv-x="645" unicode="e" d="M275 322h111q-4 58 -55 58q-49 0 -56 -58zM621 212h-348v-8q0 -76 56 -76q33 0 50 39l227 -15q-28 -80 -101.5 -125.5t-179.5 -45.5q-127 0 -211 78.5t-84 191.5t83.5 191.5t211.5 78.5q130 0 213.5 -79t83.5 -203q0 -18 -1 -27z" glyph-name="e"/>
<glyph horiz-adv-x="426" unicode="f" d="M86 0v319h-66v186h66v57q0 105 56.5 161t160.5 56q55 0 110 -12v-190q-26 4 -35 4q-27 0 -37 -14.5t-10 -46.5v-15h82v-186h-82v-319h-245z" glyph-name="f"/>
<glyph horiz-adv-x="678" unicode="g" d="M393 46v44q-67 -74 -156 -74q-87 0 -145.5 66t-58.5 172q0 122 57 194.5t147 72.5q91 0 156 -81v65h235v-432q0 -109 -25 -160q-64 -132 -312 -132q-135 0 -235 47l53 163q83 -52 162 -52q122 0 122 107zM276 264q0 -29 16.5 -46.5t44.5 -17.5t45 17.5t17 46.5t-17 47 t-45 18t-44.5 -18t-16.5 -47z" glyph-name="g"/>
<glyph horiz-adv-x="672" unicode="h" d="M53 0v757h242v-206q0 -70 -4 -116q62 86 157 86q80 0 127.5 -48.5t47.5 -133.5v-339h-246v255q0 36 -6.5 51t-27.5 15q-44 0 -44 -66v-255h-246z" glyph-name="h"/>
<glyph horiz-adv-x="361" unicode="i" d="M58 0v505h245v-505h-245zM313 662q0 -53 -35.5 -85.5t-96.5 -32.5q-62 0 -97.5 32.5t-35.5 85.5t35.5 84.5t97.5 31.5t97 -31.5t35 -84.5z" glyph-name="i"/>
<glyph horiz-adv-x="361" unicode="j" d="M58 -218v723h245v-723h-245zM313 662q0 -53 -35.5 -85.5t-96.5 -32.5q-62 0 -97.5 32.5t-35.5 85.5t35.5 84.5t97.5 31.5t97 -31.5t35 -84.5z" glyph-name="j"/>
<glyph horiz-adv-x="681" unicode="k" d="M53 0v757h243v-445l103 193h287l-179 -243l189 -262h-290l-110 189v-189h-243z" glyph-name="k"/>
<glyph horiz-adv-x="361" unicode="l" d="M58 0v757h245v-757h-245z" glyph-name="l"/>
<glyph horiz-adv-x="953" unicode="m" d="M53 0v505h234v-71q57 86 143 86q54 0 88.5 -25t57.5 -81q59 107 164 107q74 0 118.5 -48.5t44.5 -132.5v-340h-237v254q0 35 -6 50.5t-25 15.5q-39 0 -39 -66v-254h-233v254q0 35 -6.5 50.5t-25.5 15.5q-39 0 -39 -66v-254h-239z" glyph-name="m"/>
<glyph horiz-adv-x="672" unicode="n" d="M53 0v505h238v-70q62 86 157 86q80 0 127.5 -48.5t47.5 -133.5v-339h-245v255q0 35 -7 50.5t-28 15.5q-44 0 -44 -66v-255h-246z" glyph-name="n"/>
<glyph horiz-adv-x="650" unicode="o" d="M620 251q0 -113 -84 -191.5t-211 -78.5q-128 0 -211.5 78.5t-83.5 191.5t83.5 191.5t211.5 78.5t211.5 -78.5t83.5 -191.5zM325 182q27 0 43.5 19t16.5 50t-16.5 50t-43.5 19t-43.5 -19t-16.5 -50t16.5 -50t43.5 -19z" glyph-name="o"/>
<glyph horiz-adv-x="678" unicode="p" d="M53 -218v723h234v-67q64 83 157 83q90 0 146.5 -74t56.5 -199q0 -119 -58.5 -192.5t-144.5 -73.5q-96 0 -156 87q6 -42 6 -88v-199h-241zM350 178q28 0 45.5 20.5t17.5 53.5t-17.5 53.5t-45.5 20.5t-45.5 -20.5t-17.5 -53.5t17.5 -53.5t45.5 -20.5z" glyph-name="p"/>
<glyph horiz-adv-x="678" unicode="q" d="M628 -218h-241v199q0 53 5 88q-60 -87 -155 -87q-86 0 -145 73.5t-59 192.5q0 125 57 199t147 74q92 0 156 -83v67h235v-723zM268 252q0 -33 17.5 -53.5t45.5 -20.5t45.5 20.5t17.5 53.5t-17.5 53.5t-45.5 20.5t-45.5 -20.5t-17.5 -53.5z" glyph-name="q"/>
<glyph horiz-adv-x="488" unicode="r" d="M53 0v505h238v-71q61 87 157 87q12 0 18 -1v-245q-41 22 -69 22q-47 0 -72.5 -25.5t-25.5 -71.5v-200h-246z" glyph-name="r"/>
<glyph horiz-adv-x="488" unicode="s" d="M0 36l65 156q83 -56 132 -56q40 0 40 29q0 5 -1.5 9t-5 6.5t-7 4.5t-10 4t-12 3t-15 3t-16.5 3q-136 31 -136 143q0 78 65.5 129t173.5 51q105 0 193 -40l-60 -152q-69 46 -109 46q-17 0 -27 -7.5t-10 -18.5q0 -5 1.5 -8.5t5.5 -6.5t7.5 -5t12 -4t14.5 -3.5t18 -4 t20 -4.5q73 -18 108 -51.5t35 -88.5q0 -83 -67.5 -137.5t-181.5 -54.5q-121 0 -233 55z" glyph-name="s"/>
<glyph horiz-adv-x="418" unicode="t" d="M86 0v319h-69v186h69v167h245v-167h70v-186h-70v-319h-245z" glyph-name="t"/>
<glyph horiz-adv-x="654" unicode="u" d="M46 505h241v-247q0 -32 2 -47.5t11 -26t27 -10.5q26 0 32.5 18t6.5 66v247h241v-272q0 -131 -66.5 -191.5t-213.5 -60.5t-214 61t-67 191v272z" glyph-name="u"/>
<glyph horiz-adv-x="600" unicode="v" d="M188 0l-217 505h260l50 -175q13 -43 18 -76q3 24 18 76l49 175h263l-219 -505h-222z" glyph-name="v"/>
<glyph horiz-adv-x="870" unicode="w" d="M174 0l-198 505h259l43 -193q8 -39 12 -88q7 53 17 88l52 193h161l47 -199q6 -26 14 -82q6 50 18 98l46 183h259l-217 -505h-193l-43 159q-14 51 -18 77q-4 -32 -17 -77l-43 -159h-199z" glyph-name="w"/>
<glyph horiz-adv-x="627" unicode="x" d="M-32 0l203 261l-188 244h275l33 -74q13 -28 17 -48q3 15 18 48l33 74h277l-180 -244l206 -261h-291l-40 74q-12 24 -18 49q-7 -31 -17 -49l-42 -74h-286z" glyph-name="x"/>
<glyph horiz-adv-x="635" unicode="y" d="M200 44l-219 461h269l38 -129q27 -93 33 -142q21 91 36 145l37 126h252l-308 -711h-261z" glyph-name="y"/>
<glyph horiz-adv-x="547" unicode="z" d="M-1 0l201 316h-168v189h527l-200 -313h174v-192h-534z" glyph-name="z"/>
<glyph horiz-adv-x="500" unicode="{" d="M442 582q-4 0 -11 0.5t-10 0.5q-45 0 -58.5 -15.5t-13.5 -61.5v-117q0 -63 -21.5 -91t-84.5 -39q63 -12 84.5 -39.5t21.5 -89.5v-118q0 -45 13.5 -60.5t57.5 -15.5q3 0 10.5 0.5t11.5 0.5v-139h-39q-119 0 -162 22q-33 17 -43 46t-10 86v126q0 61 -22.5 87t-77.5 26 q-2 0 -8 -0.5t-9 -0.5v138q3 0 9 -0.5t8 -0.5q55 0 77.5 26t22.5 87v126q0 57 10 86.5t43 46.5q44 22 162 22h39v-139z" glyph-name="braceleft"/>
<glyph horiz-adv-x="500" unicode="|" d="M319 764v-1000h-137v1000h137z" glyph-name="bar"/>
<glyph horiz-adv-x="500" unicode="}" d="M313 566v-126q0 -61 22.5 -87t77.5 -26q2 0 8 0.5t9 0.5v-138q-3 0 -9 0.5t-8 0.5q-55 0 -77.5 -26t-22.5 -87v-126q0 -56 -10.5 -86t-43.5 -47q-42 -21 -154 -21h-46v138h21q45 0 58.5 15.5t13.5 60.5v118q0 62 21.5 89.5t84.5 39.5q-63 11 -84.5 39t-21.5 90v118 q0 46 -13.5 61.5t-58.5 15.5q-3 0 -10 -0.5t-11 -0.5v139h39q118 0 161 -22q33 -17 43.5 -47t10.5 -86z" glyph-name="braceright"/>
<glyph horiz-adv-x="833" unicode="~" d="M747 265q-97 -65 -181 -65q-50 0 -130 28q-100 34 -162 34q-79 0 -187 -77v146q110 70 199 70q55 0 136 -26q10 -3 35 -12t38 -13t34 -8t39 -4q82 0 179 73v-146z" glyph-name="asciitilde"/>
<glyph horiz-adv-x="375" unicode="¡" d="M49 624q0 48 39.5 82.5t98.5 34.5t99 -35t40 -82t-40.5 -82t-98.5 -35t-98 34.5t-40 82.5zM66 452h242v-471h-242v471z" glyph-name="exclamdown"/>
<glyph unicode="¢" d="M520 348q-40 34 -83 34q-36 0 -58.5 -19.5t-22.5 -52.5q0 -31 21.5 -51t55.5 -20q41 0 87 38l-4 -203q-35 -17 -100 -31v-60h-111v66q-91 25 -143.5 95.5t-52.5 165.5t56 169t144 93v59h112v-54q42 -5 99 -24v-205z" glyph-name="cent"/>
<glyph unicode="£" d="M366 271q0 -1 0.5 -4t0.5 -5q0 -39 -52 -76v-7q27 10 55 10q33 0 77 -14.5t58 -14.5q46 0 73 50l118 -114q-74 -115 -203 -115q-58 0 -125 21t-70 21q-2 0 -9.5 2t-19.5 4.5t-26 2.5q-47 0 -90 -43l-92 149q31 44 74 50q20 24 20 51q0 8 -6 32h-98v149h62q-26 61 -26 107 q0 87 74 141t205 54q135 0 206 -59.5t74 -175.5h-230q-3 60 -56 60q-24 0 -39 -13t-15 -33q0 -11 27 -81h195v-149h-162z" glyph-name="sterling"/>
<glyph unicode="¤" d="M634 249l-8 -234q-84 -34 -168 -34q-147 0 -244.5 73t-125.5 205h-88l16 67h63q-1 10 -1 30q0 4 0.5 13t0.5 13h-79l16 68h72q27 127 125 199.5t248 72.5q85 0 168 -36v-232q-63 57 -149 57q-87 0 -128 -61h196l-26 -68h-191q-2 -18 -2 -26q0 -20 1 -30h173l-26 -67h-131 q35 -66 129 -66q90 0 159 56z" glyph-name="currency"/>
<glyph horiz-adv-x="738" unicode="¥" d="M247 0v225h-231v107h210l-48 80h-162v108h98l-113 181h264l74 -153q29 -59 29 -67q12 33 28 67l74 153h263l-116 -181h101v-108h-169l-51 -80h220v-107h-240v-225h-231z" glyph-name="yen"/>
<glyph horiz-adv-x="500" unicode="¦" d="M319 699v-370h-137v370h137zM319 199v-370h-137v370h137z" glyph-name="brokenbar"/>
<glyph horiz-adv-x="648" unicode="§" d="M152 418q-81 34 -81 124q0 86 70 138t191 52q253 0 255 -212h-194v8q0 26 -16.5 40t-46.5 14q-29 0 -46.5 -14.5t-17.5 -37.5q0 -8 1.5 -14.5t5.5 -11t7.5 -8t11.5 -6.5t13.5 -5t17.5 -4t19.5 -3t23 -3t25.5 -3q112 -16 166 -61t54 -138q0 -123 -115 -160q80 -35 80 -127 q0 -85 -69.5 -136.5t-192.5 -51.5q-122 0 -187.5 54.5t-66.5 153.5h196v-9q0 -57 63 -57q30 0 47.5 14.5t17.5 37.5q0 8 -1.5 14.5t-5.5 11.5t-8 8.5t-11.5 6.5t-14 5t-18 4.5t-20 4t-23.5 4t-26 4.5q-114 20 -166.5 66t-52.5 138q0 123 115 159zM316 197q30 0 48.5 19 t18.5 50t-18.5 50t-48.5 19t-48.5 -19t-18.5 -50t18.5 -50t48.5 -19z" glyph-name="section"/>
<glyph horiz-adv-x="500" unicode="¨" d="M82 662q0 28 22 50t51 22q30 0 51 -21.5t21 -50.5q0 -32 -20.5 -52.5t-51.5 -20.5q-30 0 -51.5 21.5t-21.5 51.5zM272 662q0 28 22 50t51 22q30 0 51 -21.5t21 -50.5q0 -32 -20.5 -52.5t-51.5 -20.5q-30 0 -51.5 21.5t-21.5 51.5z" glyph-name="dieresis"/>
<glyph horiz-adv-x="833" unicode="©" d="M416 729q155 0 262 -107q106 -106 106 -260t-106 -257q-112 -110 -262 -110q-149 0 -258 109q-108 108 -108 258q0 151 109 262q103 105 257 105zM709 363q0 121 -85 206q-86 86 -207 86q-123 0 -205 -84q-87 -89 -87 -208q0 -120 86 -206t206 -86q119 0 208 87 q84 82 84 205zM482 431q-2 31 -19 48.5t-45 17.5q-35 0 -55.5 -34.5t-20.5 -98.5q0 -128 80 -128q59 0 62 70h121q-3 -73 -53.5 -116t-132.5 -43q-95 0 -149.5 56.5t-54.5 156.5q0 99 54.5 158.5t140.5 59.5q87 0 136.5 -39t53.5 -108h-118z" glyph-name="copyright"/>
<glyph horiz-adv-x="509" unicode="ª" d="M302 362v53q-53 -66 -124 -66q-65 0 -109 51.5t-44 135.5q0 87 42.5 139t110.5 52q69 0 117 -58v46h176v-353h-169zM201 540q0 -23 13 -37t34 -14q22 0 35 14t13 37t-13 37t-35 14q-21 0 -34 -14t-13 -37z" glyph-name="ordfeminine"/>
<glyph horiz-adv-x="519" unicode="«" d="M392 39l-145 212l145 212l94 -65l-106 -147l105 -147zM177 39l-145 212l145 212l95 -65l-107 -147l106 -147z" glyph-name="guillemotleft"/>
<glyph horiz-adv-x="833" unicode="¬" d="M709 424v-245h-133v115h-452v130h585z" glyph-name="logicalnot"/>
<glyph horiz-adv-x="833" unicode="®" d="M416 729q155 0 262 -107q106 -106 106 -260t-106 -257q-112 -110 -262 -110q-149 0 -258 109q-108 108 -108 258q0 151 109 262q103 105 257 105zM709 363q0 121 -85 206q-86 86 -207 86q-123 0 -205 -84q-87 -89 -87 -208q0 -120 86 -206t206 -86q119 0 208 87 q84 82 84 205zM421 569q86 0 130 -30t44 -87q0 -79 -80 -107l87 -173h-136l-71 152h-12v-152h-125v397h163zM402 491h-19v-94h26q58 0 58 48q0 46 -65 46z" glyph-name="registered"/>
<glyph horiz-adv-x="500" unicode="¯" d="M100 621v89h300v-89h-300z" glyph-name="macron"/>
<glyph horiz-adv-x="329" unicode="°" d="M165 719q65 0 111 -46t46 -112q0 -64 -46 -110.5t-112 -46.5q-65 0 -111 45.5t-46 111.5t46.5 112t111.5 46zM239 562q0 30 -22 52t-53 22q-30 0 -51.5 -21.5t-21.5 -52.5t21.5 -53t52.5 -22q30 0 52 22.5t22 52.5z" glyph-name="degree"/>
<glyph horiz-adv-x="833" unicode="±" d="M485 616v-151h224v-133h-224v-151h-137v151h-224v133h224v151h137zM709 113v-133h-585v133h585z" glyph-name="plusminus"/>
<glyph horiz-adv-x="452" unicode="²" d="M11 281l210 228q27 30 27 48q0 27 -29 27q-31 0 -31 -50h-157v6q0 82 51 128t141 46q87 0 139 -43.5t52 -112.5q0 -39 -19.5 -68.5t-60.5 -60.5l-40 -30h119v-118h-402z" glyph-name="twosuperior"/>
<glyph horiz-adv-x="452" unicode="³" d="M204 547q2 0 5 -0.5t4 -0.5q42 0 42 30q0 11 -7.5 18t-19.5 7q-25 0 -25 -30h-155q2 70 48.5 106.5t135.5 36.5q81 0 129 -33.5t48 -86.5q0 -64 -67 -86q85 -19 85 -100q0 -62 -52 -100t-143 -38q-96 0 -150.5 43t-54.5 117v3h162q2 -44 36 -44q17 0 27 9.5t10 25.5 q0 36 -46 36h-12v87z" glyph-name="threesuperior"/>
<glyph horiz-adv-x="500" unicode="´" d="M395 743l-152 -171h-81l88 171h145z" glyph-name="acute"/>
<glyph horiz-adv-x="670" unicode="µ" d="M294 531l-41 -300q-2 -18 -2 -26q0 -65 62 -65q75 0 90 104l41 287h204l-77 -531h-180l9 64q-35 -66 -92 -66q-60 0 -86 61l-35 -265h-201l102 737h206z" glyph-name="mu"/>
<glyph horiz-adv-x="500" unicode="¶" d="M495 653h-49v-653h-99v653h-68v-653h-99v383q-80 4 -127.5 50.5t-47.5 118.5q0 76 51.5 123t138.5 47h300v-69z" glyph-name="paragraph"/>
<glyph horiz-adv-x="343" unicode="·" d="M32 352q0 48 40 82.5t99 34.5q58 0 98.5 -35t40.5 -82t-40 -82t-99 -35t-99 34.5t-40 82.5z" glyph-name="periodcentered"/>
<glyph horiz-adv-x="500" unicode="¸" d="M116 -215v69q81 -21 128 -21q39 0 39 33q0 29 -57 29q-3 0 -11.5 -0.5t-13.5 -0.5v106h60v-41h9q54 0 83 -24.5t29 -69.5q0 -48 -32 -75t-92 -27q-64 0 -142 22z" glyph-name="cedilla"/>
<glyph horiz-adv-x="452" unicode="¹" d="M161 576h-70v130h240v-425h-170v295z" glyph-name="onesuperior"/>
<glyph horiz-adv-x="488" unicode="º" d="M465 538q0 -79 -63 -134t-158 -55q-96 0 -158.5 55t-62.5 134t62.5 134t158.5 55t158.5 -55t62.5 -134zM244 489q20 0 32.5 13.5t12.5 35.5t-12.5 35t-32.5 13t-32.5 -13t-12.5 -35t12.5 -35.5t32.5 -13.5z" glyph-name="ordmasculine"/>
<glyph horiz-adv-x="519" unicode="»" d="M127 39l-94 65l106 147l-107 147l95 65l145 -212zM341 39l-93 65l105 147l-106 147l94 65l145 -212z" glyph-name="guillemotright"/>
<glyph horiz-adv-x="1030" unicode="¼" d="M154 584h-68v121h230v-396h-162v275zM265 -19l397 741h103l-399 -741h-101zM760 184h65v55q0 29 3 44q-9 -19 -31 -49zM813 0v80h-193v104l169 216h178v-216h48v-104h-48v-80h-154z" glyph-name="onequarter"/>
<glyph horiz-adv-x="1030" unicode="½" d="M154 584h-68v121h230v-396h-162v275zM265 -19l397 741h103l-399 -741h-101zM609 0l201 213q26 28 26 45q0 25 -28 25q-29 0 -29 -47h-150v6q0 76 49 119t134 43q83 0 132.5 -40t49.5 -105q0 -37 -18 -64.5t-58 -56.5l-38 -28h113v-110h-384z" glyph-name="onehalf"/>
<glyph horiz-adv-x="1030" unicode="¾" d="M195 557h8q40 0 40 28q0 23 -25 23q-24 0 -24 -28h-149q3 133 177 133q77 0 123 -31.5t46 -80.5q0 -59 -65 -80q82 -17 82 -94q0 -57 -50 -93t-137 -36q-91 0 -143 40t-52 110v3h155q0 -41 34 -41q16 0 25.5 9t9.5 23q0 34 -44 34h-11v81zM265 -19l397 741h103l-399 -741 h-101zM760 184h65v55q0 29 3 44q-9 -19 -31 -49zM813 0v80h-193v104l169 216h178v-216h48v-104h-48v-80h-154z" glyph-name="threequarters"/>
<glyph horiz-adv-x="609" unicode="¿" d="M412 471v-185q-33 10 -54 10q-36 0 -56.5 -18.5t-20.5 -50.5q0 -51 43 -51q42 0 45 59h246q-7 -115 -85.5 -184.5t-204.5 -69.5q-127 0 -206 73.5t-79 187.5q0 105 78 170.5t204 65.5q42 0 90 -7zM473 628q0 -46 -40.5 -80t-98.5 -34q-59 0 -99 34t-40 80t40 79.5 t99 33.5t99 -33.5t40 -79.5z" glyph-name="questiondown"/>
<glyph horiz-adv-x="736" unicode="À" d="M-28 0l255 715h286l250 -715h-276l-23 90h-194l-22 -90h-276zM313 260h107l-22 81q-26 97 -29 157h-5q-3 -60 -29 -157zM223 963h145l88 -171h-81z" glyph-name="Agrave"/>
<glyph horiz-adv-x="736" unicode="Á" d="M-28 0l255 715h286l250 -715h-276l-23 90h-194l-22 -90h-276zM313 260h107l-22 81q-26 97 -29 157h-5q-3 -60 -29 -157zM513 963l-152 -171h-81l88 171h145z" glyph-name="Aacute"/>
<glyph horiz-adv-x="736" unicode="Â" d="M-28 0l255 715h286l250 -715h-276l-23 90h-194l-22 -90h-276zM313 260h107l-22 81q-26 97 -29 157h-5q-3 -60 -29 -157zM211 792l90 171h134l89 -171h-75l-81 83l-82 -83h-75z" glyph-name="Acircumflex"/>
<glyph horiz-adv-x="736" unicode="Ã" d="M-28 0l255 715h286l250 -715h-276l-23 90h-194l-22 -90h-276zM313 260h107l-22 81q-26 97 -29 157h-5q-3 -60 -29 -157zM530 951q-15 -64 -40.5 -94.5t-66.5 -30.5q-17 0 -37 6l-45 13q-23 6 -33 6q-31 0 -44 -38h-58q27 120 105 120q19 0 44 -7l46 -13q12 -4 28 -4 q33 0 43 42h58z" glyph-name="Atilde"/>
<glyph horiz-adv-x="736" unicode="Ä" d="M-28 0l255 715h286l250 -715h-276l-23 90h-194l-22 -90h-276zM313 260h107l-22 81q-26 97 -29 157h-5q-3 -60 -29 -157zM200 882q0 28 22 50t51 22q30 0 51 -21.5t21 -50.5q0 -32 -20.5 -52.5t-51.5 -20.5q-30 0 -51.5 21.5t-21.5 51.5zM390 882q0 28 22 50t51 22 q30 0 51 -21.5t21 -50.5q0 -32 -20.5 -52.5t-51.5 -20.5q-30 0 -51.5 21.5t-21.5 51.5z" glyph-name="Adieresis"/>
<glyph horiz-adv-x="736" unicode="Å" d="M-28 0l262 715l81 -2v2q-34 14 -55 46.5t-21 70.5q0 55 38.5 93t92.5 38t92.5 -38.5t38.5 -92.5q0 -84 -76 -117v-2l80 2l258 -715h-276l-23 90h-194l-22 -90h-276zM313 260h107l-25 90q-18 68 -26 158h-5q-9 -97 -26 -158zM318 832q0 -22 15 -37t37 -15t37 15t15 37 t-15.5 37.5t-36.5 15.5q-22 0 -37 -15.5t-15 -37.5z" glyph-name="Aring"/>
<glyph horiz-adv-x="912" unicode="Æ" d="M-31 0l253 715h501l66 -192h-216l25 -70h215l64 -186h-216l26 -73h215l67 -194h-487l-22 88h-194l-24 -88h-273zM311 258h107l-35 143q-14 60 -14 99h-6q-4 -65 -14 -99z" glyph-name="AE"/>
<glyph horiz-adv-x="639" unicode="Ç" d="M593 431q-70 67 -149 67q-63 0 -101.5 -38.5t-38.5 -103.5q0 -62 36.5 -100t98.5 -38q69 0 159 66l-8 -269q-84 -34 -168 -34q-132 0 -232 74q-148 109 -148 301q0 163 108.5 269.5t274.5 106.5q85 0 168 -36v-265zM265 -215v69q81 -21 128 -21q39 0 39 33q0 29 -57 29 q-3 0 -11.5 -0.5t-13.5 -0.5v106h60v-41h9q54 0 83 -24.5t29 -69.5q0 -48 -32 -75t-92 -27q-64 0 -142 22z" glyph-name="Ccedilla"/>
<glyph horiz-adv-x="588" unicode="È" d="M67 0v715h478v-194h-226v-69h205v-183h-205v-75h232v-194h-484zM160 963h145l88 -171h-81z" glyph-name="Egrave"/>
<glyph horiz-adv-x="588" unicode="É" d="M67 0v715h478v-194h-226v-69h205v-183h-205v-75h232v-194h-484zM450 963l-152 -171h-81l88 171h145z" glyph-name="Eacute"/>
<glyph horiz-adv-x="588" unicode="Ê" d="M67 0v715h478v-194h-226v-69h205v-183h-205v-75h232v-194h-484zM148 792l90 171h134l89 -171h-75l-81 83l-82 -83h-75z" glyph-name="Ecircumflex"/>
<glyph horiz-adv-x="588" unicode="Ë" d="M67 0v715h478v-194h-226v-69h205v-183h-205v-75h232v-194h-484zM137 882q0 28 22 50t51 22q30 0 51 -21.5t21 -50.5q0 -32 -20.5 -52.5t-51.5 -20.5q-30 0 -51.5 21.5t-21.5 51.5zM327 882q0 28 22 50t51 22q30 0 51 -21.5t21 -50.5q0 -32 -20.5 -52.5t-51.5 -20.5 q-30 0 -51.5 21.5t-21.5 51.5z" glyph-name="Edieresis"/>
<glyph horiz-adv-x="405" unicode="Ì" d="M72 0v715h261v-715h-261zM58 963h145l88 -171h-81z" glyph-name="Igrave"/>
<glyph horiz-adv-x="405" unicode="Í" d="M72 0v715h261v-715h-261zM348 963l-152 -171h-81l88 171h145z" glyph-name="Iacute"/>
<glyph horiz-adv-x="405" unicode="Î" d="M72 0v715h261v-715h-261zM46 792l90 171h134l89 -171h-75l-81 83l-82 -83h-75z" glyph-name="Icircumflex"/>
<glyph horiz-adv-x="405" unicode="Ï" d="M72 0v715h261v-715h-261zM35 882q0 28 22 50t51 22q30 0 51 -21.5t21 -50.5q0 -32 -20.5 -52.5t-51.5 -20.5q-30 0 -51.5 21.5t-21.5 51.5zM225 882q0 28 22 50t51 22q30 0 51 -21.5t21 -50.5q0 -32 -20.5 -52.5t-51.5 -20.5q-30 0 -51.5 21.5t-21.5 51.5z" glyph-name="Idieresis"/>
<glyph horiz-adv-x="804" unicode="Ð" d="M81 0v279h-81v168h81v268h208q193 0 283 -45q92 -46 142 -128.5t50 -184.5q0 -89 -38.5 -163t-109.5 -123q-64 -44 -143 -57.5t-204 -13.5h-188zM319 199q10 -1 30 -1q84 0 127.5 41.5t43.5 119.5q0 77 -44.5 117.5t-129.5 40.5q-18 0 -27 -1v-75h101v-156h-101v-86z" glyph-name="Eth"/>
<glyph horiz-adv-x="845" unicode="Ñ" d="M67 0v715h252l222 -374q-8 51 -8 114v260h248v-715h-254l-220 371q8 -53 8 -113v-258h-248zM585 951q-15 -64 -40.5 -94.5t-66.5 -30.5q-18 0 -37 6l-45 13q-22 6 -33 6q-31 0 -44 -38h-58q27 120 105 120q19 0 44 -7l46 -13q12 -4 28 -4q32 0 43 42h58z" glyph-name="Ntilde"/>
<glyph horiz-adv-x="847" unicode="Ò" d="M806 356q0 -160 -109 -267q-110 -108 -273 -108q-162 0 -274 109q-108 106 -108 266q0 161 108 267q111 108 274 108t274 -108q108 -106 108 -267zM424 221q53 0 86.5 37t33.5 98q0 62 -33.5 99t-86.5 37t-87 -37.5t-34 -98.5t34 -98t87 -37zM279 963h145l88 -171h-81z " glyph-name="Ograve"/>
<glyph horiz-adv-x="847" unicode="Ó" d="M806 356q0 -160 -109 -267q-110 -108 -273 -108q-162 0 -274 109q-108 106 -108 266q0 161 108 267q111 108 274 108t274 -108q108 -106 108 -267zM424 221q53 0 86.5 37t33.5 98q0 62 -33.5 99t-86.5 37t-87 -37.5t-34 -98.5t34 -98t87 -37zM569 963l-152 -171h-81 l88 171h145z" glyph-name="Oacute"/>
<glyph horiz-adv-x="847" unicode="Ô" d="M806 356q0 -160 -109 -267q-110 -108 -273 -108q-162 0 -274 109q-108 106 -108 266q0 161 108 267q111 108 274 108t274 -108q108 -106 108 -267zM424 221q53 0 86.5 37t33.5 98q0 62 -33.5 99t-86.5 37t-87 -37.5t-34 -98.5t34 -98t87 -37zM267 792l90 171h134l89 -171 h-75l-81 83l-82 -83h-75z" glyph-name="Ocircumflex"/>
<glyph horiz-adv-x="847" unicode="Õ" d="M806 356q0 -160 -109 -267q-110 -108 -273 -108q-162 0 -274 109q-108 106 -108 266q0 161 108 267q111 108 274 108t274 -108q108 -106 108 -267zM424 221q53 0 86.5 37t33.5 98q0 62 -33.5 99t-86.5 37t-87 -37.5t-34 -98.5t34 -98t87 -37zM586 951 q-15 -64 -40.5 -94.5t-66.5 -30.5q-17 0 -37 6l-45 13q-23 6 -33 6q-31 0 -44 -38h-58q27 120 105 120q19 0 44 -7l46 -13q12 -4 28 -4q33 0 43 42h58z" glyph-name="Otilde"/>
<glyph horiz-adv-x="847" unicode="Ö" d="M806 356q0 -160 -109 -267q-110 -108 -273 -108q-162 0 -274 109q-108 106 -108 266q0 161 108 267q111 108 274 108t274 -108q108 -106 108 -267zM424 221q53 0 86.5 37t33.5 98q0 62 -33.5 99t-86.5 37t-87 -37.5t-34 -98.5t34 -98t87 -37zM256 882q0 28 22 50t51 22 q30 0 51 -21.5t21 -50.5q0 -32 -20.5 -52.5t-51.5 -20.5q-30 0 -51.5 21.5t-21.5 51.5zM446 882q0 28 22 50t51 22q30 0 51 -21.5t21 -50.5q0 -32 -20.5 -52.5t-51.5 -20.5q-30 0 -51.5 21.5t-21.5 51.5z" glyph-name="Odieresis"/>
<glyph horiz-adv-x="833" unicode="×" d="M427 393l208 208l95 -95l-208 -208l208 -208l-95 -95l-208 208l-208 -208l-95 95l208 208l-208 208l95 95z" glyph-name="multiply"/>
<glyph horiz-adv-x="847" unicode="Ø" d="M189 -44l-66 43l49 70q-130 112 -130 288q0 162 108 268t274 106q97 0 186 -44l49 69l61 -43l-46 -68q132 -111 132 -288q0 -160 -109 -267t-273 -107q-96 0 -185 43zM471 492q-25 7 -50 7q-58 0 -94 -38.5t-36 -102.5q0 -51 23 -88zM377 222q24 -7 50 -7q56 0 92.5 39 t36.5 104q0 49 -24 86z" glyph-name="Oslash"/>
<glyph horiz-adv-x="782" unicode="Ù" d="M59 327v388h257v-390q0 -62 14.5 -90.5t56.5 -28.5t57 29t15 90v390h257v-388q0 -141 -42 -208q-41 -65 -116 -101.5t-171 -36.5t-171 36.5t-116 101.5t-41 208zM246 963h145l88 -171h-81z" glyph-name="Ugrave"/>
<glyph horiz-adv-x="782" unicode="Ú" d="M59 327v388h257v-390q0 -62 14.5 -90.5t56.5 -28.5t57 29t15 90v390h257v-388q0 -141 -42 -208q-41 -65 -116 -101.5t-171 -36.5t-171 36.5t-116 101.5t-41 208zM536 963l-152 -171h-81l88 171h145z" glyph-name="Uacute"/>
<glyph horiz-adv-x="782" unicode="Û" d="M59 327v388h257v-390q0 -62 14.5 -90.5t56.5 -28.5t57 29t15 90v390h257v-388q0 -141 -42 -208q-41 -65 -116 -101.5t-171 -36.5t-171 36.5t-116 101.5t-41 208zM234 792l90 171h134l89 -171h-75l-81 83l-82 -83h-75z" glyph-name="Ucircumflex"/>
<glyph horiz-adv-x="782" unicode="Ü" d="M59 327v388h257v-390q0 -62 14.5 -90.5t56.5 -28.5t57 29t15 90v390h257v-388q0 -141 -42 -208q-41 -65 -116 -101.5t-171 -36.5t-171 36.5t-116 101.5t-41 208zM223 882q0 28 22 50t51 22q30 0 51 -21.5t21 -50.5q0 -32 -20.5 -52.5t-51.5 -20.5q-30 0 -51.5 21.5 t-21.5 51.5zM413 882q0 28 22 50t51 22q30 0 51 -21.5t21 -50.5q0 -32 -20.5 -52.5t-51.5 -20.5q-30 0 -51.5 21.5t-21.5 51.5z" glyph-name="Udieresis"/>
<glyph horiz-adv-x="637" unicode="Ý" d="M183 0v316l-239 399h293l60 -139q8 -18 21 -59q11 33 22 59l59 139h291l-248 -399v-316h-259zM464 963l-152 -171h-81l88 171h145z" glyph-name="Yacute"/>
<glyph horiz-adv-x="708" unicode="Þ" d="M324 118v-118h-257v715h257v-92h50q160 0 236 -61.5t76 -199.5q0 -128 -68.5 -186t-212.5 -58h-81zM325 423v-118h40q76 0 76 59t-76 59h-40z" glyph-name="Thorn"/>
<glyph horiz-adv-x="699" unicode="ß" d="M57 0v553q0 224 286 224q135 0 206.5 -52t71.5 -147t-91 -137q70 -20 107.5 -71.5t37.5 -127.5q0 -242 -305 -242h-26l-3 143h5q39 0 57 24t18 76q0 62 -15.5 87t-63.5 29v142q6 -1 17 -1q56 0 56 47q0 23 -14 37t-38 14q-36 0 -48.5 -25.5t-12.5 -81.5v-491h-245z" glyph-name="germandbls"/>
<glyph horiz-adv-x="678" unicode="à" d="M402 0v76q-71 -95 -165 -95q-86 0 -145 73.5t-59 193.5q0 125 57 199t147 74q92 0 156 -83v67h235v-505h-226zM268 254q0 -33 17.5 -52.5t45.5 -19.5q29 0 46 19.5t17 52.5t-17.5 53t-45.5 20t-45.5 -20t-17.5 -53zM204 743h145l88 -171h-81z" glyph-name="agrave"/>
<glyph horiz-adv-x="678" unicode="á" d="M402 0v76q-71 -95 -165 -95q-86 0 -145 73.5t-59 193.5q0 125 57 199t147 74q92 0 156 -83v67h235v-505h-226zM268 254q0 -33 17.5 -52.5t45.5 -19.5q29 0 46 19.5t17 52.5t-17.5 53t-45.5 20t-45.5 -20t-17.5 -53zM494 743l-152 -171h-81l88 171h145z" glyph-name="aacute"/>
<glyph horiz-adv-x="678" unicode="â" d="M402 0v76q-71 -95 -165 -95q-86 0 -145 73.5t-59 193.5q0 125 57 199t147 74q92 0 156 -83v67h235v-505h-226zM268 254q0 -33 17.5 -52.5t45.5 -19.5q29 0 46 19.5t17 52.5t-17.5 53t-45.5 20t-45.5 -20t-17.5 -53zM192 572l90 171h134l89 -171h-75l-81 83l-82 -83h-75z " glyph-name="acircumflex"/>
<glyph horiz-adv-x="678" unicode="ã" d="M402 0v76q-71 -95 -165 -95q-86 0 -145 73.5t-59 193.5q0 125 57 199t147 74q92 0 156 -83v67h235v-505h-226zM268 254q0 -33 17.5 -52.5t45.5 -19.5q29 0 46 19.5t17 52.5t-17.5 53t-45.5 20t-45.5 -20t-17.5 -53zM511 731q-15 -64 -40.5 -94.5t-66.5 -30.5q-18 0 -37 6 l-45 13q-22 6 -33 6q-31 0 -44 -38h-58q27 120 105 120q19 0 44 -7l46 -13q12 -4 28 -4q32 0 43 42h58z" glyph-name="atilde"/>
<glyph horiz-adv-x="678" unicode="ä" d="M402 0v76q-71 -95 -165 -95q-86 0 -145 73.5t-59 193.5q0 125 57 199t147 74q92 0 156 -83v67h235v-505h-226zM268 254q0 -33 17.5 -52.5t45.5 -19.5q29 0 46 19.5t17 52.5t-17.5 53t-45.5 20t-45.5 -20t-17.5 -53zM181 662q0 28 22 50t51 22q30 0 51 -21.5t21 -50.5 q0 -32 -20.5 -52.5t-51.5 -20.5q-30 0 -51.5 21.5t-21.5 51.5zM371 662q0 28 22 50t51 22q30 0 51 -21.5t21 -50.5q0 -32 -20.5 -52.5t-51.5 -20.5q-30 0 -51.5 21.5t-21.5 51.5z" glyph-name="adieresis"/>
<glyph horiz-adv-x="678" unicode="å" d="M402 0v76q-71 -95 -165 -95q-86 0 -145 73.5t-59 193.5q0 125 57 199t147 74q92 0 156 -83v67h235v-505h-226zM268 254q0 -33 17.5 -52.5t45.5 -19.5q29 0 46 19.5t17 52.5t-17.5 53t-45.5 20t-45.5 -20t-17.5 -53zM223 667q0 53 37 90t90 37t90.5 -37.5t37.5 -89.5 q0 -53 -37.5 -90t-90.5 -37t-90 37t-37 90zM298 668q0 -22 15 -37.5t37 -15.5t37.5 15.5t15.5 37.5t-15.5 37t-37.5 15t-37 -15t-15 -37z" glyph-name="aring"/>
<glyph horiz-adv-x="992" unicode="æ" d="M500 460q75 59 176 59q131 0 213.5 -80t82.5 -209v-19h-348v-8q0 -75 53 -75q37 0 53 39l227 -15q-28 -80 -101.5 -125t-179.5 -45q-100 0 -181 53q-103 -52 -223 -52q-112 0 -176.5 48t-64.5 127q0 83 60.5 133.5t159.5 50.5q59 0 148 -29v7q0 83 -132 83 q-39 0 -80 -8.5t-65 -17t-68 -25.5v129q111 40 218 40q129 0 228 -61zM331 119q33 0 52.5 13t19.5 34t-19.5 34.5t-52.5 13.5t-53 -13.5t-20 -34.5t20 -34t53 -13zM626 320h110q-4 58 -55 58q-47 0 -55 -58z" glyph-name="ae"/>
<glyph horiz-adv-x="464" unicode="ç" d="M435 289q-40 34 -83 34q-36 0 -58.5 -19.5t-22.5 -52.5q0 -31 21.5 -51t55.5 -20q41 0 87 38v-201q-75 -36 -143 -36q-116 0 -192.5 76.5t-76.5 191.5q0 116 76.5 194t192.5 78q65 0 143 -28v-204zM137 -215v69q81 -21 128 -21q39 0 39 33q0 29 -57 29q-3 0 -11.5 -0.5 t-13.5 -0.5v106h60v-41h9q54 0 83 -24.5t29 -69.5q0 -48 -32 -75t-92 -27q-64 0 -142 22z" glyph-name="ccedilla"/>
<glyph horiz-adv-x="645" unicode="è" d="M275 322h111q-4 58 -55 58q-49 0 -56 -58zM621 212h-348v-8q0 -76 56 -76q33 0 50 39l227 -15q-28 -80 -101.5 -125.5t-179.5 -45.5q-127 0 -211 78.5t-84 191.5t83.5 191.5t211.5 78.5q130 0 213.5 -79t83.5 -203q0 -18 -1 -27zM190 743h145l88 -171h-81z" glyph-name="egrave"/>
<glyph horiz-adv-x="645" unicode="é" d="M275 322h111q-4 58 -55 58q-49 0 -56 -58zM621 212h-348v-8q0 -76 56 -76q33 0 50 39l227 -15q-28 -80 -101.5 -125.5t-179.5 -45.5q-127 0 -211 78.5t-84 191.5t83.5 191.5t211.5 78.5q130 0 213.5 -79t83.5 -203q0 -18 -1 -27zM480 743l-152 -171h-81l88 171h145z" glyph-name="eacute"/>
<glyph horiz-adv-x="645" unicode="ê" d="M275 322h111q-4 58 -55 58q-49 0 -56 -58zM621 212h-348v-8q0 -76 56 -76q33 0 50 39l227 -15q-28 -80 -101.5 -125.5t-179.5 -45.5q-127 0 -211 78.5t-84 191.5t83.5 191.5t211.5 78.5q130 0 213.5 -79t83.5 -203q0 -18 -1 -27zM178 572l90 171h134l89 -171h-75l-81 83 l-82 -83h-75z" glyph-name="ecircumflex"/>
<glyph horiz-adv-x="645" unicode="ë" d="M275 322h111q-4 58 -55 58q-49 0 -56 -58zM621 212h-348v-8q0 -76 56 -76q33 0 50 39l227 -15q-28 -80 -101.5 -125.5t-179.5 -45.5q-127 0 -211 78.5t-84 191.5t83.5 191.5t211.5 78.5q130 0 213.5 -79t83.5 -203q0 -18 -1 -27zM167 662q0 28 22 50t51 22q30 0 51 -21.5 t21 -50.5q0 -32 -20.5 -52.5t-51.5 -20.5q-30 0 -51.5 21.5t-21.5 51.5zM357 662q0 28 22 50t51 22q30 0 51 -21.5t21 -50.5q0 -32 -20.5 -52.5t-51.5 -20.5q-30 0 -51.5 21.5t-21.5 51.5z" glyph-name="edieresis"/>
<glyph horiz-adv-x="361" unicode="ì" d="M58 0v505h245v-505h-245zM36 743h145l88 -171h-81z" glyph-name="igrave"/>
<glyph horiz-adv-x="361" unicode="í" d="M58 0v505h245v-505h-245zM326 743l-152 -171h-81l88 171h145z" glyph-name="iacute"/>
<glyph horiz-adv-x="361" unicode="î" d="M58 0v505h245v-505h-245zM24 572l90 171h134l89 -171h-75l-81 83l-82 -83h-75z" glyph-name="icircumflex"/>
<glyph horiz-adv-x="361" unicode="ï" d="M58 0v505h245v-505h-245zM13 662q0 28 22 50t51 22q30 0 51 -21.5t21 -50.5q0 -32 -20.5 -52.5t-51.5 -20.5q-30 0 -51.5 21.5t-21.5 51.5zM203 662q0 28 22 50t51 22q30 0 51 -21.5t21 -50.5q0 -32 -20.5 -52.5t-51.5 -20.5q-30 0 -51.5 21.5t-21.5 51.5z" glyph-name="idieresis"/>
<glyph horiz-adv-x="650" unicode="ð" d="M360 443q-32 47 -98 96l-126 -61l-32 67l86 43q-16 9 -52 28l96 141q81 -42 138 -82l149 73l42 -64l-125 -62q87 -71 133 -162t46 -192q0 -135 -78 -211t-214 -76q-130 0 -212.5 74t-82.5 189q0 99 62.5 162t162.5 63q50 0 105 -26zM325 181q27 0 43.5 18t16.5 47 q0 28 -17 46t-43 18q-27 0 -43.5 -17.5t-16.5 -46.5t16.5 -47t43.5 -18z" glyph-name="eth"/>
<glyph horiz-adv-x="672" unicode="ñ" d="M53 0v505h238v-70q62 86 157 86q80 0 127.5 -48.5t47.5 -133.5v-339h-245v255q0 35 -7 50.5t-28 15.5q-44 0 -44 -66v-255h-246zM498 731q-15 -64 -40.5 -94.5t-66.5 -30.5q-17 0 -37 6l-45 13q-23 6 -33 6q-31 0 -44 -38h-58q27 120 105 120q19 0 44 -7l46 -13 q12 -4 28 -4q33 0 43 42h58z" glyph-name="ntilde"/>
<glyph horiz-adv-x="650" unicode="ò" d="M620 251q0 -113 -84 -191.5t-211 -78.5q-128 0 -211.5 78.5t-83.5 191.5t83.5 191.5t211.5 78.5t211.5 -78.5t83.5 -191.5zM325 182q27 0 43.5 19t16.5 50t-16.5 50t-43.5 19t-43.5 -19t-16.5 -50t16.5 -50t43.5 -19zM180 743h145l88 -171h-81z" glyph-name="ograve"/>
<glyph horiz-adv-x="650" unicode="ó" d="M620 251q0 -113 -84 -191.5t-211 -78.5q-128 0 -211.5 78.5t-83.5 191.5t83.5 191.5t211.5 78.5t211.5 -78.5t83.5 -191.5zM325 182q27 0 43.5 19t16.5 50t-16.5 50t-43.5 19t-43.5 -19t-16.5 -50t16.5 -50t43.5 -19zM470 743l-152 -171h-81l88 171h145z" glyph-name="oacute"/>
<glyph horiz-adv-x="650" unicode="ô" d="M620 251q0 -113 -84 -191.5t-211 -78.5q-128 0 -211.5 78.5t-83.5 191.5t83.5 191.5t211.5 78.5t211.5 -78.5t83.5 -191.5zM325 182q27 0 43.5 19t16.5 50t-16.5 50t-43.5 19t-43.5 -19t-16.5 -50t16.5 -50t43.5 -19zM168 572l90 171h134l89 -171h-75l-81 83l-82 -83h-75 z" glyph-name="ocircumflex"/>
<glyph horiz-adv-x="650" unicode="õ" d="M620 251q0 -113 -84 -191.5t-211 -78.5q-128 0 -211.5 78.5t-83.5 191.5t83.5 191.5t211.5 78.5t211.5 -78.5t83.5 -191.5zM325 182q27 0 43.5 19t16.5 50t-16.5 50t-43.5 19t-43.5 -19t-16.5 -50t16.5 -50t43.5 -19zM487 731q-15 -64 -40.5 -94.5t-66.5 -30.5 q-18 0 -37 6l-45 13q-22 6 -33 6q-31 0 -44 -38h-58q27 120 105 120q19 0 44 -7l46 -13q12 -4 28 -4q32 0 43 42h58z" glyph-name="otilde"/>
<glyph horiz-adv-x="650" unicode="ö" d="M620 251q0 -113 -84 -191.5t-211 -78.5q-128 0 -211.5 78.5t-83.5 191.5t83.5 191.5t211.5 78.5t211.5 -78.5t83.5 -191.5zM325 182q27 0 43.5 19t16.5 50t-16.5 50t-43.5 19t-43.5 -19t-16.5 -50t16.5 -50t43.5 -19zM157 662q0 28 22 50t51 22q30 0 51 -21.5t21 -50.5 q0 -32 -20.5 -52.5t-51.5 -20.5q-30 0 -51.5 21.5t-21.5 51.5zM347 662q0 28 22 50t51 22q30 0 51 -21.5t21 -50.5q0 -32 -20.5 -52.5t-51.5 -20.5q-30 0 -51.5 21.5t-21.5 51.5z" glyph-name="odieresis"/>
<glyph horiz-adv-x="833" unicode="÷" d="M417 594q36 0 62.5 -26.5t26.5 -63.5q0 -36 -26 -62.5t-64 -26.5q-37 0 -63 26t-26 63q0 38 26.5 64t63.5 26zM709 365v-133h-585v133h585zM417 181q36 0 62.5 -26t26.5 -63q0 -36 -26 -62.5t-64 -26.5q-37 0 -63 26t-26 63q0 38 26.5 63.5t63.5 25.5z" glyph-name="divide"/>
<glyph horiz-adv-x="650" unicode="ø" d="M169 -41l-55 31l30 46q-114 84 -114 215q0 113 84 191.5t211 78.5q70 0 126 -24l31 46l58 -32l-30 -46q110 -83 110 -214q0 -113 -83.5 -191.5t-211.5 -78.5q-61 0 -124 25zM347 336q-19 3 -30 3q-36 0 -62 -25.5t-26 -63.5q0 -32 21 -59zM304 165q15 -3 31 -3 q35 0 61 25.5t26 62.5q0 34 -22 59z" glyph-name="oslash"/>
<glyph horiz-adv-x="654" unicode="ù" d="M46 505h241v-247q0 -32 2 -47.5t11 -26t27 -10.5q26 0 32.5 18t6.5 66v247h241v-272q0 -131 -66.5 -191.5t-213.5 -60.5t-214 61t-67 191v272zM182 743h145l88 -171h-81z" glyph-name="ugrave"/>
<glyph horiz-adv-x="654" unicode="ú" d="M46 505h241v-247q0 -32 2 -47.5t11 -26t27 -10.5q26 0 32.5 18t6.5 66v247h241v-272q0 -131 -66.5 -191.5t-213.5 -60.5t-214 61t-67 191v272zM472 743l-152 -171h-81l88 171h145z" glyph-name="uacute"/>
<glyph horiz-adv-x="654" unicode="û" d="M46 505h241v-247q0 -32 2 -47.5t11 -26t27 -10.5q26 0 32.5 18t6.5 66v247h241v-272q0 -131 -66.5 -191.5t-213.5 -60.5t-214 61t-67 191v272zM170 572l90 171h134l89 -171h-75l-81 83l-82 -83h-75z" glyph-name="ucircumflex"/>
<glyph horiz-adv-x="654" unicode="ü" d="M46 505h241v-247q0 -32 2 -47.5t11 -26t27 -10.5q26 0 32.5 18t6.5 66v247h241v-272q0 -131 -66.5 -191.5t-213.5 -60.5t-214 61t-67 191v272zM159 662q0 28 22 50t51 22q30 0 51 -21.5t21 -50.5q0 -32 -20.5 -52.5t-51.5 -20.5q-30 0 -51.5 21.5t-21.5 51.5zM349 662 q0 28 22 50t51 22q30 0 51 -21.5t21 -50.5q0 -32 -20.5 -52.5t-51.5 -20.5q-30 0 -51.5 21.5t-21.5 51.5z" glyph-name="udieresis"/>
<glyph horiz-adv-x="635" unicode="ý" d="M200 44l-219 461h269l38 -129q27 -93 33 -142q21 91 36 145l37 126h252l-308 -711h-261zM463 743l-152 -171h-81l88 171h145z" glyph-name="yacute"/>
<glyph horiz-adv-x="678" unicode="þ" d="M288 69q6 -38 6 -88v-199h-241v975h241v-252q0 -29 -7 -67q64 83 157 83q90 0 146.5 -74t56.5 -199q0 -119 -58.5 -192.5t-144.5 -73.5q-96 0 -156 87zM350 178q28 0 45.5 20.5t17.5 53.5t-17.5 53.5t-45.5 20.5t-45.5 -20.5t-17.5 -53.5t17.5 -53.5t45.5 -20.5z" glyph-name="thorn"/>
</font>
</defs>
</svg>
